<svg xmlns="http://www.w3.org/2000/svg" viewBox="0 0 1046.81 262.38"><defs><style>.cls-1{fill:#0c0c0c;}.cls-2{fill:#fafbfc;}</style></defs><g id="Calque_1" data-name="Calque 1"><path class="cls-1" d="M1033,85.72v.55c0,5.17-1.32,10.94-4.12,18.11l-30.44,85.34a82.39,82.39,0,0,1-78,55.85H121.13l25.41-73.84H46.45l10-28.26,2.75-7.78H8.8l10-28.27L29.39,77.51a31.84,31.84,0,0,1,30-21.22l606,0c6.55,0,15.71.61,23.53,5.38l9.81-28,5-14.2h54.59c19.78,0,27.65,10.93,30.46,16.89,1.33,2.64,8.09,1.32,8.09,1.32H908.32L892.81,57.48a73.94,73.94,0,0,1,14.3-1.24h92.34c10.94,0,19.47,3.09,25.34,9.19A28.81,28.81,0,0,1,1033,85.72Z"/><path class="cls-2" d="M242,208.7a4.4,4.4,0,0,0-4.6,4.15v14.51h-2.31V212.85c0-3.45,3.09-6.22,6.91-6.22H259.3a7.18,7.18,0,0,1,5.76,2.77,7.14,7.14,0,0,1,5.76-2.77H288.1c3.83,0,6.91,2.77,6.91,6.22v14.51h-2.3V212.85a4.4,4.4,0,0,0-4.61-4.15H270.82c-2.48,0-4.6,1.78-4.6,4v14.68h-2.31V212.68c0-2.2-2.16-4-4.61-4Z"/><path class="cls-2" d="M295.05,227.4h-2.38V212.85a4.36,4.36,0,0,0-4.57-4.11H270.82c-2.47,0-4.56,1.8-4.56,3.94V227.4h-2.39V212.68c0-2.14-2.09-3.94-4.57-3.94H242a4.36,4.36,0,0,0-4.56,4.11V227.4h-2.39V212.85c0-3.46,3.12-6.26,7-6.26H259.3a7.2,7.2,0,0,1,5.76,2.75,7.14,7.14,0,0,1,5.76-2.75H288.1c3.84,0,6.95,2.8,6.95,6.26Zm-2.3-.08H295V212.85c0-3.41-3.08-6.18-6.87-6.18H270.82a7,7,0,0,0-5.72,2.76l0,0,0,0a7.15,7.15,0,0,0-5.73-2.76H242c-3.78,0-6.87,2.77-6.87,6.18v14.47h2.23V212.85a4.44,4.44,0,0,1,4.64-4.19H259.3c2.52,0,4.65,1.84,4.65,4v14.64h2.23V212.68c0-2.18,2.12-4,4.64-4H288.1a4.44,4.44,0,0,1,4.65,4.19Z"/><path class="cls-2" d="M326.82,206.63c3.82,0,6.91,2.77,6.91,6.22V218h-30v3.11a4.41,4.41,0,0,0,4.6,4.15h23.74l-.7,2.07h-23c-3.82,0-6.91-2.78-6.91-6.22v-8.29c0-3.45,3.09-6.22,6.91-6.22Zm-18.44,2.07a4.4,4.4,0,0,0-4.6,4.15V216h27.64v-3.11a4.4,4.4,0,0,0-4.6-4.15Z"/><path class="cls-2" d="M331.45,227.4H308.38c-3.83,0-6.95-2.81-6.95-6.26v-8.29c0-3.46,3.12-6.26,6.95-6.26h18.44c3.83,0,6.95,2.8,6.95,6.26v5.22H303.82v3.07a4.36,4.36,0,0,0,4.56,4.11h23.79Zm-23.07-20.73c-3.78,0-6.87,2.77-6.87,6.18v8.29c0,3.41,3.09,6.18,6.87,6.18h23l.66-2H308.38a4.44,4.44,0,0,1-4.64-4.19V218h29.95v-5.14c0-3.41-3.08-6.18-6.87-6.18ZM331.46,216H303.74v-3.15a4.44,4.44,0,0,1,4.64-4.19h18.44a4.44,4.44,0,0,1,4.64,4.19Zm-27.64-.08h27.56v-3.07a4.36,4.36,0,0,0-4.56-4.11H308.38a4.36,4.36,0,0,0-4.56,4.11Z"/><path class="cls-2" d="M370.6,225.29l-.46,2.07H346.63c-3.82,0-6.91-2.78-6.91-6.22v-8.29c0-3.45,3.09-6.22,6.91-6.22h23l.7,2.07H346.63a4.4,4.4,0,0,0-4.6,4.15v8.29a4.41,4.41,0,0,0,4.6,4.15Z"/><path class="cls-2" d="M370.17,227.4H346.63c-3.83,0-6.95-2.81-6.95-6.26v-8.29c0-3.46,3.12-6.26,6.95-6.26H369.7v0l.71,2.13H346.63a4.36,4.36,0,0,0-4.56,4.11v8.29a4.36,4.36,0,0,0,4.56,4.11h24Zm-23.54-20.73c-3.78,0-6.87,2.77-6.87,6.18v8.29c0,3.41,3.09,6.18,6.87,6.18H370.1l.45-2H346.63a4.44,4.44,0,0,1-4.64-4.19v-8.29a4.44,4.44,0,0,1,4.64-4.19h23.68l-.66-2Z"/><path class="cls-2" d="M405.62,212.85A4.4,4.4,0,0,0,401,208.7H377.28l.69-2.07h23c3.83,0,6.91,2.77,6.91,6.22v14.51H382.58c-3.82,0-6.91-2.57-6.91-6s3.09-6,6.91-6h23Zm0,12.44v-7.88h-23c-2.53,0-4.61,1.66-4.61,3.94s2.08,3.94,4.61,3.94Z"/><path class="cls-2" d="M408,227.4H382.58c-3.9,0-6.95-2.66-6.95-6.05s3.05-6.06,6.95-6.06h23v-2.44a4.36,4.36,0,0,0-4.57-4.11H377.23l.71-2.15H401c3.84,0,6.95,2.8,6.95,6.26Zm-25.38-12c-3.85,0-6.87,2.63-6.87,6s3,6,6.87,6h25.3V212.85c0-3.41-3.08-6.18-6.87-6.18H378l-.66,2H401a4.44,4.44,0,0,1,4.65,4.19v2.52Zm23.08,10H382.58c-2.6,0-4.65-1.75-4.65-4s2.05-4,4.65-4h23.08Zm-23.08-7.88c-2.56,0-4.57,1.71-4.57,3.9s2,3.9,4.57,3.9h23v-7.8Z"/><path class="cls-2" d="M421.75,208.7a4.41,4.41,0,0,0-4.61,4.15v14.51h-2.3V212.85c0-3.45,3.09-6.22,6.91-6.22h18.43c3.83,0,6.92,2.77,6.92,6.22v14.51h-2.31V212.85a4.4,4.4,0,0,0-4.61-4.15Z"/><path class="cls-2" d="M447.14,227.4h-2.39V212.85a4.36,4.36,0,0,0-4.57-4.11H421.75a4.36,4.36,0,0,0-4.57,4.11V227.4H414.8V212.85c0-3.46,3.12-6.26,6.95-6.26h18.43c3.84,0,7,2.8,7,6.26Zm-2.31-.08h2.23V212.85c0-3.41-3.09-6.18-6.88-6.18H421.75c-3.79,0-6.87,2.77-6.87,6.18v14.47h2.22V212.85a4.45,4.45,0,0,1,4.65-4.19h18.43a4.44,4.44,0,0,1,4.65,4.19Z"/><path class="cls-2" d="M454,198.33h2.31v2.08H454Zm0,8.3h2.31v20.73H454Z"/><path class="cls-2" d="M456.36,227.4H454V206.59h2.39Zm-2.31-.08h2.23V206.67h-2.23Zm2.31-26.87H454v-2.16h2.39Zm-2.31-.09h2.23v-2h-2.23Z"/><path class="cls-2" d="M469.63,227.36c-3.82,0-6.91-2.78-6.91-6.22v-8.29c0-3.45,3.09-6.22,6.91-6.22H495v29h-2.31v-8.29ZM465,221.14a4.42,4.42,0,0,0,4.61,4.15h23V208.7h-23a4.41,4.41,0,0,0-4.61,4.15Z"/><path class="cls-2" d="M495,235.69h-2.39V227.4h-23c-3.83,0-6.95-2.81-6.95-6.26v-8.29c0-3.46,3.12-6.26,6.95-6.26H495Zm-2.31-.08h2.23V206.67H469.63c-3.79,0-6.87,2.77-6.87,6.18v8.29c0,3.41,3.08,6.18,6.87,6.18h23.08Zm0-10.28H469.63a4.45,4.45,0,0,1-4.65-4.19v-8.29a4.45,4.45,0,0,1,4.65-4.19h23.08Zm-23.08-16.59a4.36,4.36,0,0,0-4.57,4.11v8.29a4.37,4.37,0,0,0,4.57,4.11h23V208.74Z"/><path class="cls-2" d="M527.24,225.29a4.41,4.41,0,0,0,4.6-4.15V206.63h2.31v14.51c0,3.44-3.09,6.22-6.91,6.22H508.8c-3.82,0-6.91-2.78-6.91-6.22V206.63h2.31v14.51a4.41,4.41,0,0,0,4.6,4.15Z"/><path class="cls-2" d="M527.24,227.4H508.8c-3.83,0-6.95-2.81-6.95-6.26V206.59h2.39v14.55a4.36,4.36,0,0,0,4.56,4.11h18.44a4.36,4.36,0,0,0,4.56-4.11V206.59h2.39v14.55C534.19,224.59,531.07,227.4,527.24,227.4Zm-25.31-20.73v14.47c0,3.41,3.08,6.18,6.87,6.18h18.44c3.78,0,6.87-2.77,6.87-6.18V206.67h-2.23v14.47a4.44,4.44,0,0,1-4.64,4.19H508.8a4.44,4.44,0,0,1-4.64-4.19V206.67Z"/><path class="cls-2" d="M566,206.63c3.82,0,6.91,2.77,6.91,6.22V218h-30v3.11a4.41,4.41,0,0,0,4.6,4.15h23.74l-.7,2.07h-23c-3.82,0-6.91-2.78-6.91-6.22v-8.29c0-3.45,3.09-6.22,6.91-6.22Zm-18.44,2.07a4.4,4.4,0,0,0-4.6,4.15V216h27.64v-3.11a4.4,4.4,0,0,0-4.6-4.15Z"/><path class="cls-2" d="M570.58,227.4H547.51c-3.83,0-7-2.81-7-6.26v-8.29c0-3.46,3.12-6.26,7-6.26H566c3.83,0,6.95,2.8,6.95,6.26v5.22H543v3.07a4.36,4.36,0,0,0,4.56,4.11H571.3Zm-23.07-20.73c-3.78,0-6.87,2.77-6.87,6.18v8.29c0,3.41,3.09,6.18,6.87,6.18h23l.66-2H547.51a4.44,4.44,0,0,1-4.64-4.19V218h30v-5.14c0-3.41-3.08-6.18-6.87-6.18ZM570.59,216H542.87v-3.15a4.44,4.44,0,0,1,4.64-4.19H566a4.44,4.44,0,0,1,4.64,4.19ZM543,215.92h27.56v-3.07a4.36,4.36,0,0,0-4.56-4.11H547.51a4.36,4.36,0,0,0-4.56,4.11Z"/><path class="cls-2" d="M627.24,206.63v-8.3h2.3v29H604.2c-3.83,0-6.91-2.78-6.91-6.22v-8.29c0-3.45,3.08-6.22,6.91-6.22Zm-27.65,14.51a4.41,4.41,0,0,0,4.61,4.15h23V208.7h-23a4.4,4.4,0,0,0-4.61,4.15Z"/><path class="cls-2" d="M629.58,227.4H604.2c-3.84,0-7-2.81-7-6.26v-8.29c0-3.46,3.11-6.26,7-6.26h23v-8.3h2.38ZM604.2,206.67c-3.79,0-6.87,2.77-6.87,6.18v8.29c0,3.41,3.08,6.18,6.87,6.18h25.3V198.37h-2.22v8.3Zm23.08,18.66H604.2a4.44,4.44,0,0,1-4.65-4.19v-8.29a4.44,4.44,0,0,1,4.65-4.19h23.08ZM604.2,208.74a4.36,4.36,0,0,0-4.57,4.11v8.29a4.37,4.37,0,0,0,4.57,4.11h23V208.74Z"/><path class="cls-2" d="M661.8,225.29a4.42,4.42,0,0,0,4.61-4.15V206.63h2.3v14.51c0,3.44-3.09,6.22-6.91,6.22H643.37c-3.83,0-6.91-2.78-6.91-6.22V206.63h2.3v14.51a4.41,4.41,0,0,0,4.61,4.15Z"/><path class="cls-2" d="M661.8,227.4H643.37c-3.83,0-7-2.81-7-6.26V206.59h2.38v14.55a4.37,4.37,0,0,0,4.57,4.11H661.8a4.37,4.37,0,0,0,4.57-4.11V206.59h2.38v14.55C668.75,224.59,665.63,227.4,661.8,227.4Zm-25.3-20.73v14.47c0,3.41,3.08,6.18,6.87,6.18H661.8c3.79,0,6.87-2.77,6.87-6.18V206.67h-2.22v14.47a4.45,4.45,0,0,1-4.65,4.19H643.37a4.45,4.45,0,0,1-4.65-4.19V206.67Z"/><path class="cls-2" d="M726.32,227.36H724c0-4.15-3.68-9.33-5.53-9.33H696.37v9.33h-2.31v-29h2.31V216h22.11c1.85,0,5.53-5.19,5.53-9.33h2.31a13.69,13.69,0,0,1-5,10.36A13.7,13.7,0,0,1,726.32,227.36Z"/><path class="cls-2" d="M726.36,227.4H724v0c0-4.18-3.67-9.29-5.49-9.29H696.41v9.33H694V198.29h2.39v17.63h22.07c1.82,0,5.49-5.11,5.49-9.29v0h2.39v0a13.85,13.85,0,0,1-5,10.36,13.86,13.86,0,0,1,5,10.37Zm-2.31-.08h2.23a13.78,13.78,0,0,0-5-10.3l0,0,0,0a13.77,13.77,0,0,0,5-10.29h-2.23c0,4.2-3.73,9.33-5.57,9.33H696.33V198.37H694.1v28.95h2.23V218h22.15C720.32,218,724,223.11,724.05,227.32Z"/><path class="cls-2" d="M761.8,212.85a4.4,4.4,0,0,0-4.61-4.15H733.46l.69-2.07h23c3.83,0,6.91,2.77,6.91,6.22v14.51H738.76c-3.82,0-6.91-2.57-6.91-6s3.09-6,6.91-6h23Zm0,12.44v-7.88h-23c-2.53,0-4.61,1.66-4.61,3.94s2.08,3.94,4.61,3.94Z"/><path class="cls-2" d="M764.14,227.4H738.76c-3.9,0-7-2.66-7-6.05s3.05-6.06,7-6.06h23v-2.44a4.36,4.36,0,0,0-4.57-4.11H733.41l.72-2.15h23.06c3.84,0,6.95,2.8,6.95,6.26Zm-25.38-12c-3.85,0-6.87,2.63-6.87,6s3,6,6.87,6h25.3V212.85c0-3.41-3.08-6.18-6.87-6.18h-23l-.66,2h23.67a4.44,4.44,0,0,1,4.65,4.19v2.52Zm23.08,10H738.76c-2.6,0-4.65-1.75-4.65-4s2-4,4.65-4h23.08Zm-23.08-7.88c-2.56,0-4.57,1.71-4.57,3.9s2,3.9,4.57,3.9h23v-7.8Z"/><path class="cls-2" d="M798.21,206.63l.69,2.07h-21c-2.3,0-4.6,2.07-4.6,4.15v14.51H771V206.63h2.31v3.73a4.38,4.38,0,0,1,4.6-3.73Z"/><path class="cls-2" d="M773.37,227.4H771V206.59h2.39v3.25a4.5,4.5,0,0,1,4.56-3.25h20.31v0l.7,2.13h-21c-2.26,0-4.56,2.07-4.56,4.11Zm-2.31-.08h2.23V212.85c0-2.12,2.3-4.19,4.64-4.19h20.91l-.66-2H777.93a4.33,4.33,0,0,0-4.56,3.69h-.08v-3.69h-2.23Z"/><path class="cls-2" d="M825.4,225.29l-.69,2.07H813.88c-3.83,0-6.91-2.78-6.91-6.22V208.7h-4.61l.69-2.07H807v-8.3h2.3v8.3H825.4l-.69,2.07H809.27v12.44a4.41,4.41,0,0,0,4.61,4.15Z"/><path class="cls-2" d="M824.74,227.4H813.88c-3.83,0-7-2.81-7-6.26v-12.4H802.3l.72-2.15h3.91v-8.3h2.38v8.3h16.14l-.71,2.15H809.31v12.4a4.37,4.37,0,0,0,4.57,4.11h11.57Zm-22.33-18.74H807v12.48c0,3.41,3.08,6.18,6.87,6.18h10.8l.66-2H813.88a4.45,4.45,0,0,1-4.65-4.19V208.66h15.45l.66-2H809.23v-8.3H807v8.3h-3.93Z"/><path class="cls-2" d="M830.93,198.33h2.3v2.08h-2.3Zm0,8.3h2.3v20.73h-2.3Z"/><path class="cls-2" d="M833.27,227.4h-2.38V206.59h2.38Zm-2.3-.08h2.22V206.67H831Zm2.3-26.87h-2.38v-2.16h2.38Zm-2.3-.09h2.22v-2H831Z"/><path class="cls-2" d="M847,208.7a4.4,4.4,0,0,0-4.6,4.15v14.51H840.1V212.85c0-3.45,3.09-6.22,6.91-6.22h18.44c3.82,0,6.91,2.77,6.91,6.22v14.51h-2.31V212.85a4.4,4.4,0,0,0-4.6-4.15Z"/><path class="cls-2" d="M872.4,227.4H870V212.85a4.36,4.36,0,0,0-4.56-4.11H847a4.36,4.36,0,0,0-4.56,4.11V227.4h-2.39V212.85c0-3.46,3.12-6.26,7-6.26h18.44c3.83,0,6.95,2.8,6.95,6.26Zm-2.31-.08h2.23V212.85c0-3.41-3.09-6.18-6.87-6.18H847c-3.79,0-6.87,2.77-6.87,6.18v14.47h2.23V212.85a4.44,4.44,0,0,1,4.64-4.19h18.44a4.44,4.44,0,0,1,4.64,4.19Z"/><path class="cls-2" d="M904.16,233.58a4.41,4.41,0,0,0,4.6-4.15v-2.07h-23c-3.82,0-6.91-2.78-6.91-6.22v-8.29c0-3.45,3.09-6.22,6.91-6.22h25.35v22.8c0,3.45-3.09,6.22-6.91,6.22h-23l-.7-2.07Zm-23-12.44a4.41,4.41,0,0,0,4.6,4.15h23V208.7h-23a4.4,4.4,0,0,0-4.6,4.15Z"/><path class="cls-2" d="M904.16,235.69H881.09v0l-.71-2.13h23.79a4.36,4.36,0,0,0,4.56-4.11v-2h-23c-3.83,0-7-2.81-7-6.26v-8.29c0-3.46,3.12-6.26,7-6.26h25.39v22.84C911.11,232.88,908,235.69,904.16,235.69Zm-23-.08h23c3.78,0,6.87-2.77,6.87-6.18V206.67H885.72c-3.79,0-6.87,2.77-6.87,6.18v8.29c0,3.41,3.08,6.18,6.87,6.18H908.8v2.11a4.44,4.44,0,0,1-4.64,4.19H880.48Zm27.66-10.28H885.72a4.44,4.44,0,0,1-4.64-4.19v-8.29a4.44,4.44,0,0,1,4.64-4.19H908.8Zm-23.08-16.59a4.35,4.35,0,0,0-4.56,4.11v8.29a4.36,4.36,0,0,0,4.56,4.11h23V208.74Z"/><path class="cls-2" d="M167.13,187.81a10.61,10.61,0,0,0-10,7.07l-10.42,29.49h42.56a10.6,10.6,0,0,0,10-7.07l10.42-29.48H167.13Zm63-36.55a10.61,10.61,0,0,0-10,7.06l-10.41,29.49h42.55a10.59,10.59,0,0,0,10-7.07l10.43-29.49ZM92.46,114a10.59,10.59,0,0,0-10,7.07L72,150.53h42.55a10.61,10.61,0,0,0,10-7.06L135,114H92.46Zm63-36.54a10.59,10.59,0,0,0-10,7.06L135,114h42.54a10.6,10.6,0,0,0,10-7.07L198,77.44ZM192.57,114a10.61,10.61,0,0,0-10,7.07l-10.43,29.48h42.57a10.59,10.59,0,0,0,10-7.06L235.11,114H192.57Zm63-36.55a10.61,10.61,0,0,0-10,7.07L235.12,114h42.56a10.6,10.6,0,0,0,10-7.07l10.42-29.49ZM55,77.49a10.58,10.58,0,0,0-10,7.07L34.4,114.49H77.57a10.6,10.6,0,0,0,10-7.07L98.15,77.49Zm950.2,2.71q-2.58-2.76-10.13-2.76H902.71c-6.25,0-11,.68-14.34,2a23.14,23.14,0,0,0-10.68,8.83,42.58,42.58,0,0,0-2.39,4.79l-6.07,18h44.71q2.38-7.19,4-11.23a21.32,21.32,0,0,1,10.49-11.41,30.79,30.79,0,0,1,5.34-1.84q2.22-.73,9-.73H955.5l-12,34.77H887.07a59.11,59.11,0,0,0-11,.73,16.85,16.85,0,0,0-5.15,1.66q-8.1,3.31-12.51,13.07L847,168.5a25.92,25.92,0,0,0-2.21,9.19v.37a8.27,8.27,0,0,0,2.94,6.81c2.33,2,6.82,2.95,13.43,2.95h95.11q9.39,0,15.09-5.53a49.42,49.42,0,0,0,3.31-3.86,42.44,42.44,0,0,0,3.68-8.09l26.31-73.41q2.75-7,2.75-10.66v-.55A7.47,7.47,0,0,0,1005.18,80.2ZM923.1,179.36H905.66a19.82,19.82,0,0,1-6.63-.93c-4.42-1.34-6.62-4.11-6.62-8.27a17.85,17.85,0,0,1,.74-4.43q1.29-4.23,5-14.34a103.13,103.13,0,0,1,3.87-9.75,18.41,18.41,0,0,1,3.86-5.7q6.61-6.81,17.11-6.81h17.48ZM860.4,58.86H803l-49.23,65.31H740.64l23-63.47q2.57-7,2.57-11a8.28,8.28,0,0,0-.92-4q-2-5-11.4-5H714.34L670.56,165.55q-3.49,8.83-3.5,12.88v.74a9,9,0,0,0,.92,4.05c1.71,3.06,5.4,4.6,11,4.6h40.65l9.89-30.68L737.34,133h16.91l15.46,37.89q3.3,9.38,7.91,13.15c3.06,2.51,7.66,3.78,13.8,3.78h40.1l-26.86-57.77Zm-186,21.53q-3.49-3-13.43-3h-95.3q-9.37,0-14.89,5.51a24.87,24.87,0,0,0-3.32,3.87,43,43,0,0,0-3.68,8.09l-26.3,73.4q-2.76,7-2.77,10.68v.55a7.48,7.48,0,0,0,2.22,5.51c1.71,1.84,5,2.77,9.93,2.77h92.53q9.38,0,14.35-2a22.41,22.41,0,0,0,10.49-8.65,38.45,38.45,0,0,0,2.57-5l6.08-18H608.19q-2.4,7.17-4.23,11.22a20.44,20.44,0,0,1-10.3,11.41,28.65,28.65,0,0,1-5.33,1.83c-1.48.49-4.49.75-9,.75h-12.7l12-34.77h56.48a58,58,0,0,0,11-.75,27.21,27.21,0,0,0,5.15-1.46q8.09-3.49,12.32-13.25l11.6-32.38a26,26,0,0,0,2.2-9.2v-.18A8.47,8.47,0,0,0,674.42,80.39ZM628.79,99.51q-1.1,4.24-5,14.35a88.7,88.7,0,0,1-3.68,9.76,18.74,18.74,0,0,1-3.86,5.69q-6.63,6.83-17.11,6.82H581.52L599.22,86l-.4-.09h17.65a20.24,20.24,0,0,1,6.63.92q6.42,2,6.43,8.28A17.65,17.65,0,0,1,628.79,99.51Zm-101-13.61a23.76,23.76,0,0,1-1.48,7.18l-33.67,94.74H443.37q30.17-84.63,30.9-87a23.63,23.63,0,0,0,1.1-5.52v-.55c0-4.17-2.33-6.92-7-8.28a23.72,23.72,0,0,0-5.33-.55H444.92L408.78,187.82H359.66Q390,103.39,390.76,101a25.82,25.82,0,0,0,1.1-5.7v-.37c0-4.17-2.33-6.92-7-8.28a18.08,18.08,0,0,0-5.33-.73H361.31L325.26,187.82H272.83l34-95.49a32.26,32.26,0,0,1,2.94-5.88q6.07-9,18.21-9H516q8.46,0,10.67,4.23A8.14,8.14,0,0,1,527.81,85.9Z"/></g></svg>